# xmcd CD database file
#
# Track frame offsets:
#	150
#	14164
#	27573
#	41099
#	56347
#	71639
#	86238
#	101666
#	117247
#	131004
#	144668
#	156155
#	170758
#	186032
#	200248
#	215279
#	228411
#	242653
#	257945
#	272216
#	286793
#	300834
#
# Disc length: 4188 seconds
#
# Revision: 3
# Processed by: cddbd v1.5.2PL0 Copyright (c) Steve Scherf et al.
# Submitted via: CDex 1.51
#
DISCID=4f105a16
DTITLE=Woody Herman - [CD 01-10] - Out Of This World
DYEAR=1900
DGENRE=Jazz
TTITLE0=Out Of This World  [1945]
TTITLE1=June Comes Around Every Year  [1945]
TTITLE2=Caldonia  [1945]
TTITLE3=Happiness Is A Thing Called Joe  [1945]
TTITLE4=Goosey Gander  [1945]
TTITLE5=Northwest Passage  [1945]
TTITLE6=A Kiss Goodnight  [1945]
TTITLE7=I've Got The World On A String  [1945]
TTITLE8=Love Me  [1945]
TTITLE9=No Time  [1945]
TTITLE10=The Good Earth  [1945]
TTITLE11=Put That Ring On My Finger  [1945]
TTITLE12=Bijou  (Rhumba A La Jazz)  [1945]
TTITLE13=Gee It's Good To Hold You  [1945]
TTITLE14=Your Fathers Mustache  [1945]
TTITLE15=Wild Root  [1945]
TTITLE16=Everybody Knew But Me  [1945]
TTITLE17=Blowin' Up The Storm  [1945]
TTITLE18=Atlanta, GA  [1945]
TTITLE19=Let It Snow  [1945]
TTITLE20=Welcome To My Dream  [1945]
TTITLE21=It's Anybody's Spring  [1945]
EXTD=
EXTT0=
EXTT1=
EXTT2=
EXTT3=
EXTT4=
EXTT5=
EXTT6=
EXTT7=
EXTT8=
EXTT9=
EXTT10=
EXTT11=
EXTT12=
EXTT13=
EXTT14=
EXTT15=
EXTT16=
EXTT17=
EXTT18=
EXTT19=
EXTT20=
EXTT21=
PLAYORDER=
